<svg width="140" height="140" viewBox="0 0 140 140" fill="none" xmlns="http://www.w3.org/2000/svg">
<circle cx="70" cy="70" r="60" fill="white"/>
<path d="M77.7781 54C76.1531 55.5078 74.6859 57.093 73.3859 58.6852C71.2563 55.7516 68.6156 52.7758 65.625 50C57.9484 57.1227 52.5 66.4031 52.5 72C52.5 81.9414 60.3352 90 70 90C79.6648 90 87.5 81.9414 87.5 72C87.5 67.8383 83.4391 59.2547 77.7781 54ZM76.257 80.6133C74.5648 81.7977 72.4781 82.5 70.2234 82.5C64.5867 82.5 60 78.7703 60 72.7148C60 69.6984 61.8992 67.0406 65.6867 62.5C66.2281 63.1234 73.4078 72.2922 73.4078 72.2922L77.9883 67.0672C78.3117 67.6023 78.6062 68.1258 78.8687 68.6273C81.0055 72.7047 80.1039 77.9219 76.257 80.6133Z" fill="#F24E1E"/>
</svg>
