<svg width="36" height="40" viewBox="0 0 36 40" fill="none" xmlns="http://www.w3.org/2000/svg">
<path d="M25.7781 4C24.1531 5.50781 22.6859 7.09297 21.3859 8.68516C19.2563 5.75156 16.6156 2.77578 13.625 0C5.94844 7.12266 0.5 16.4031 0.5 22C0.5 31.9414 8.33516 40 18 40C27.6648 40 35.5 31.9414 35.5 22C35.5 17.8383 31.4391 9.25469 25.7781 4ZM24.257 30.6133C22.5648 31.7977 20.4781 32.5 18.2234 32.5C12.5867 32.5 8 28.7703 8 22.7148C8 19.6984 9.89922 17.0406 13.6867 12.5C14.2281 13.1234 21.4078 22.2922 21.4078 22.2922L25.9883 17.0672C26.3117 17.6023 26.6062 18.1258 26.8687 18.6273C29.0055 22.7047 28.1039 27.9219 24.257 30.6133Z" fill="#F24E1E"/>
</svg>
